<svg width="156" height="156" viewBox="0 0 156 156" fill="none" xmlns="http://www.w3.org/2000/svg">
<path d="M118.754 46.064C118.754 20.6315 100.536 0 77.9999 0C55.4635 0 37.2455 20.7612 37.2455 46.1938C37.2455 68.5121 51.4151 87.1972 70.0379 91.4792L65.3148 102.638C65.0449 103.287 65.1798 103.936 65.4497 104.455C65.8545 104.974 66.3943 105.363 67.0691 105.363H73.5466C70.4428 111.202 68.2836 120.156 75.8407 125.735C84.0725 131.834 73.2767 146.756 73.1418 146.886C72.467 147.794 72.7369 148.962 73.6815 149.611C74.0864 149.87 74.4912 150 74.8961 150C75.5708 150 76.1106 149.74 76.5155 149.221C77.0552 148.443 89.6054 131.055 78.2698 122.751C71.1175 117.561 76.3805 108.348 78.1348 105.493H86.6366C87.3113 105.493 87.986 105.104 88.3909 104.585C88.7957 104.066 88.7957 103.287 88.5258 102.768L84.0725 91.7388C103.64 88.4948 118.754 69.2907 118.754 46.064ZM70.1729 101.341L74.0864 91.9983C75.4359 92.128 76.6504 92.2578 77.9999 92.2578C78.6746 92.2578 79.2144 92.2578 79.7542 92.2578L83.8027 101.341H70.1729ZM77.9999 88.3651C57.7577 88.3651 41.294 69.4204 41.294 46.064C41.294 22.8374 57.7577 3.89273 77.9999 3.89273C98.2421 3.89273 114.706 22.8374 114.706 46.1938C114.706 69.4204 98.2421 88.3651 77.9999 88.3651Z" fill="black"/>
<path d="M118.754 46.064C118.754 20.6315 100.536 0 77.9999 0C55.4635 0 37.2455 20.7612 37.2455 46.1938C37.2455 68.5121 51.4151 87.1972 70.0379 91.4792L65.3148 102.638C65.0449 103.287 65.1798 103.936 65.4497 104.455C65.8545 104.974 66.3943 105.363 67.0691 105.363H73.5466C70.4428 111.202 68.2836 120.156 75.8407 125.735C84.0725 131.834 73.2767 146.756 73.1418 146.886C72.467 147.794 72.7369 148.962 73.6815 149.611C74.0864 149.87 74.4912 150 74.8961 150C75.5708 150 76.1106 149.74 76.5155 149.221C77.0552 148.443 89.6054 131.055 78.2698 122.751C71.1175 117.561 76.3805 108.348 78.1348 105.493H86.6366C87.3113 105.493 87.986 105.104 88.3909 104.585C88.7957 104.066 88.7957 103.287 88.5258 102.768L84.0725 91.7388C103.64 88.4948 118.754 69.2907 118.754 46.064ZM70.1729 101.341L74.0864 91.9983C75.4359 92.128 76.6504 92.2578 77.9999 92.2578C78.6746 92.2578 79.2144 92.2578 79.7542 92.2578L83.8027 101.341H70.1729ZM77.9999 88.3651C57.7577 88.3651 41.294 69.4204 41.294 46.064C41.294 22.8374 57.7577 3.89273 77.9999 3.89273C98.2421 3.89273 114.706 22.8374 114.706 46.1938C114.706 69.4204 98.2421 88.3651 77.9999 88.3651Z" fill="url(#paint0_linear)"/>
<path d="M77.9999 88.3651C57.7577 88.3651 41.294 69.4204 41.294 46.064C41.294 22.8374 57.7577 3.89273 77.9999 3.89273C98.2421 3.89273 114.706 22.8374 114.706 46.1938C114.706 69.4204 98.2421 88.3651 77.9999 88.3651Z" fill="black"/>
<path d="M77.9999 88.3651C57.7577 88.3651 41.294 69.4204 41.294 46.064C41.294 22.8374 57.7577 3.89273 77.9999 3.89273C98.2421 3.89273 114.706 22.8374 114.706 46.1938C114.706 69.4204 98.2421 88.3651 77.9999 88.3651Z" fill="url(#paint1_linear)"/>
<path d="M70.1729 101.341L74.0864 91.9983C75.4359 92.128 76.6504 92.2578 77.9999 92.2578H79.7542L83.8027 101.341H70.1729Z" fill="black"/>
<path d="M70.1729 101.341L74.0864 91.9983C75.4359 92.128 76.6504 92.2578 77.9999 92.2578H79.7542L83.8027 101.341H70.1729Z" fill="url(#paint2_linear)"/>
<defs>
<linearGradient id="paint0_linear" x1="118.486" y1="151.014" x2="-7.58768" y2="82.5063" gradientUnits="userSpaceOnUse">
<stop stop-color="#9BCDFF"/>
<stop offset="1" stop-color="#0FE78D"/>
</linearGradient>
<linearGradient id="paint1_linear" x1="118.486" y1="151.014" x2="-7.58768" y2="82.5063" gradientUnits="userSpaceOnUse">
<stop stop-color="#9BCDFF"/>
<stop offset="1" stop-color="#0FE78D"/>
</linearGradient>
<linearGradient id="paint2_linear" x1="118.486" y1="151.014" x2="-7.58768" y2="82.5063" gradientUnits="userSpaceOnUse">
<stop stop-color="#9BCDFF"/>
<stop offset="1" stop-color="#0FE78D"/>
</linearGradient>
</defs>
</svg>
